# xmcd
#
# Track frame offsets:
#	150
#	14330
#	29118
#	43990
#	61558
#	76053
#	93150
#	105295
#	119823
#	132408
#	148665
#	161778
#	174845
#	186710
#	198515
#
# Disc length: 2821 seconds
#
# Revision: 2
# Processed by: cddbd v1.5.2PL0 Copyright (c) Steve Scherf et al.
# Submitted via: audiograbber 1.83.01
#
DISCID=d20b030f
DTITLE=Lasse Stefanz - Tic Tac Toe
DYEAR=1992
DGENRE=Dance
TTITLE0=Tic Tac Toe
TTITLE1=En Gång Är Ingen Gång
TTITLE2=Lycka På Färden
TTITLE3=Håll Mig Hårt
TTITLE4=Tio Röda Rosor
TTITLE5=Mexican Girl
TTITLE6=Cafe`au Lait
TTITLE7=Mitt Hjärtas Bok
TTITLE8=Ta En Titt På Kärleken
TTITLE9=Stanna Kvar
TTITLE10=Resan Till Karibien
TTITLE11=Det Är Samma Blå Ögon
TTITLE12=I Dina Blå Ögon
TTITLE13=Säj Ingenting
TTITLE14=Hallå Min Sol
EXTD=
EXTT0=
EXTT1=
EXTT2=
EXTT3=
EXTT4=
EXTT5=
EXTT6=
EXTT7=
EXTT8=
EXTT9=
EXTT10=
EXTT11=
EXTT12=
EXTT13=
EXTT14=
PLAYORDER=
